<?xml version="1.0" encoding="UTF-8" standalone="no"?>
<svg xmlns="http://www.w3.org/2000/svg" xmlns:svg="http://www.w3.org/2000/svg" width="32" height="32" version="1.1">
  <defs id="defs1" />
  <g transform="matrix(0.15000015,0,0,0.15000015,-5.1486497e-5,1.0499992)"
     id="g1">
    <path d="m 85.77223,84.875471 c -0.60026,-0.84961 -1.55826,-1.3076 -2.52179,-1.3076 v 0 0 c -0.61529,0 -1.24482,0.18747 -1.77769,0.581 v 0 6.6e-4 0 0 c -0.45213,0.3288 -0.76987,0.76274 -0.97073,1.21521 v 0 0 c -0.17607,0.39513 -0.26854,0.82454 -0.26854,1.2594 v 0 0 c -0.001,0.60774 0.18161,1.23114 0.56413,1.76467 v 0 0 c 0.57782,0.81901 1.50355,1.26368 2.43655,1.26368 v 0 0 c 0.003,0 0.007,0 0.009,0 v 0 0 c 0.59734,0.001 1.20054,-0.17874 1.72694,-0.53454 v 0 0 c 0.45633,-0.30594 0.7936,-0.72034 1.0192,-1.16273 v 0 0 c 0.21387,-0.42481 0.33074,-0.89321 0.33074,-1.37341 v 0 0 c 10e-4,-0.5846 -0.17874,-1.18647 -0.54787,-1.70634 z m 94.37636,7.28289 c 1.31766,0 2.58914,-0.72233 3.24214,-1.96974 v 0 0 c 0.27087,-0.5182 0.39068,-1.069 0.40561,-1.59213 v 0 0 c 0,-0.0436 0,-0.0759 0,-0.10254 v 0 0 c 0.001,-1.31221 -0.70574,-2.59015 -1.96094,-3.24222 v 0 0 c -0.53707,-0.27832 -1.11914,-0.41406 -1.69007,-0.41306 v 0 0 c -1.32101,-0.003 -2.60422,0.71941 -3.25135,1.98148 v 0 0 c -0.26628,0.51853 -0.38213,1.06767 -0.39253,1.59373 v 0 0 c 0,0 -0.001,0.0244 -0.001,0.0755 v 0 0 c -0.003,1.32001 0.71093,2.60155 1.96747,3.25588 v 0 0 c 0.5358,0.27826 1.11261,0.41307 1.68101,0.41307 z m -14.89199,0.39127 c 0.003,0 0.007,0 0.009,0 v 0 0 c 1.55531,6.6e-4 3.05793,-0.8496 3.82487,-2.32881 v 0 0 c 0.32032,-0.61947 0.47334,-1.2832 0.47853,-1.93161 v 0 0 c 0,-0.0453 0,-0.0453 0,-0.0453 v 0 0 c 0.001,-1.55534 -0.84573,-3.06248 -2.32939,-3.82682 v 0 0 c -0.62895,-0.32486 -1.30669,-0.48047 -1.97009,-0.48047 v 0 0 c -1.5684,-0.001 -3.08267,0.85968 -3.84116,2.34894 v 0 0 c -0.31644,0.62114 -0.46293,1.28748 -0.46419,1.93461 v 0 0 c 0,0.004 0,0.008 0,0.012 v 0 0 c -0.001,1.56582 0.85547,3.08015 2.34308,3.84442 v 0 0 c 0.62372,0.31906 1.293,0.47333 1.9486,0.47333 z m -46.64084,70.095659 c 0.2396,0.0572 0.4746,0.0833 0.70314,0.0833 v 0 0 c 0.007,0 0.012,0 0.0189,0 v 0 0 c 0.24413,0 0.47854,-0.0287 0.69793,-0.0729 v 0 0 c 1.15755,-0.24934 2.14128,-1.1426 2.41861,-2.39781 v 0 0 c 0.054,-0.23566 0.0801,-0.4772 0.0788,-0.71287 v 0 0 c -0.003,-1.49413 -1.04293,-2.81774 -2.53841,-3.12961 v 0 l 6.6e-4,-6e-4 v 0 0 c -0.20832,-0.0436 -0.41473,-0.0625 -0.61393,-0.0625 v 0 0 c -0.28579,0 -0.56254,0.0391 -0.82486,0.11 v 0 0 c -1.13347,0.29361 -2.06908,1.20048 -2.33661,2.41861 v 0 0 c -0.0468,0.22654 -0.0703,0.44855 -0.0703,0.67121 v 0 0 c -0.008,1.43821 0.98047,2.74741 2.46615,3.09314 z m 30.26377,-71.416599 c 0.48048,0.24247 0.99875,0.35841 1.50588,0.35841 v 0 0 c 0.001,0 0.003,0 0.004,0 v 0 0 c 1.20767,0 2.37501,-0.66767 2.96614,-1.81708 v 0 0 c 0.2318,-0.45708 0.33466,-0.93587 0.35026,-1.39194 v 0 l 0.004,-0.012 v 0 -0.14194 0 0 c -0.008,-1.19173 -0.65953,-2.35907 -1.8132,-2.945 v 0 l -6e-4,6.6e-4 v 0 0 c -0.48115,-0.24547 -1,-0.36519 -1.51048,-0.36519 v 0 0 c -1.21874,-10e-4 -2.39454,0.67087 -2.98049,1.83494 v 0 0 c -0.24604,0.4876 -0.34566,1.00486 -0.34566,1.49253 v 0 0 c 0,0.009 0,0.0469 0.003,0.0948 v 0 0 c 0.0285,1.1774 0.68293,2.31574 1.81767,2.89161 z m -25.25981,-0.64587 c 0.23826,-0.48207 0.33719,-0.98893 0.33719,-1.46747 v 0 0 c 0,-0.0664 -0.003,-0.11293 -0.003,-0.14093 v 0 0 c -0.0527,-1.18747 -0.71354,-2.30468 -1.84701,-2.86328 v 0 l -0.3776,0.76786 v 0 l 0.37626,-0.76886 v 0 0 c -0.47199,-0.2298 -0.97653,-0.34274 -1.47134,-0.34114 v 0 0 c -1.23307,-0.004 -2.42581,0.68521 -3.00261,1.87434 v 0 0 c -0.22852,0.4688 -0.32486,0.96648 -0.32486,1.43981 v 0 0 c 0,0.0612 6e-4,0.13281 0.007,0.21353 v 0 0 c 0.0585,1.13968 0.7246,2.25101 1.85354,2.80308 v 0 0 c 0.46873,0.22981 0.97133,0.33953 1.46286,0.33953 v 0 0 c 0.001,0 0.003,0 0.004,0 v 0 0 c 1.22787,0 2.40362,-0.68814 2.98569,-1.85647 z m -51.259,12.491909 c -0.18619,0 -0.38413,0.0176 -0.5892,0.0619 v 0 0 c -1.41181,0.27668 -2.38801,1.526 -2.39161,2.91408 v 0 0 c 0,0.19527 0.0189,0.40167 0.0664,0.61393 v 0 0 c 0.10801,0.51234 0.36007,0.96028 0.67026,1.31381 v 0 0 c 0.55953,0.63674 1.37207,1.02473 2.25127,1.02473 v 0 0 c 0.19147,0 0.38348,-0.0189 0.57228,-0.056 v 0 0 c 1.40006,-0.28974 2.37114,-1.50654 2.36821,-2.89195 v 0 0 c 0,-0.18946 -0.0172,-0.375 -0.0511,-0.5586 v 0 0 c -0.098,-0.5234 -0.33393,-0.97787 -0.63407,-1.34048 v 0 0 c -0.54073,-0.6576 -1.35779,-1.0814 -2.2624,-1.0814 z M 36.484315,70.146551 c -0.26666,0.3252 -0.429397,0.69861 -0.512399,1.06053 v 0 0 c -0.0472,0.19601 -0.07067,0.3988 -0.07067,0.60354 v 0 0 c -9.33e-4,0.75427 0.324275,1.51593 0.954811,2.03974 v 0 0 c 0.484999,0.403 1.079401,0.60354 1.665002,0.60354 v 0 0 c 0.0013,0 0.004,0 0.0067,0 v 0 0 c 0.755539,0.001 1.507145,-0.33074 2.024078,-0.95314 v 0 0 c 0.276741,-0.333 0.445012,-0.71034 0.531934,-1.07847 v 0 0 c 0.04653,-0.20314 0.06827,-0.40853 0.06827,-0.61067 v 0 0 c 0.0013,-0.74941 -0.322261,-1.50521 -0.951797,-2.02348 v 0 0 c -0.490533,-0.40426 -1.092481,-0.60513 -1.68427,-0.60513 v 0 0 c -0.754219,-10e-4 -1.515945,0.3268 -2.031225,0.96354 z m 46.060035,24.48516 c -0.0677,0 -0.14745,6e-4 -0.23666,0.007 v 0 0 c -2.06021,0.11654 -3.65561,1.79561 -3.66474,3.78775 v 0 0 c 0.001,0.0993 0.005,0.20933 0.018,0.32813 v 0 0 c 0.0557,0.67907 0.31346,1.301809 0.67187,1.811539 v 0 0 c 0.70766,1.00588 1.87341,1.64714 3.15494,1.6504 v 0 0 c 0.0791,-0.001 0.14913,-0.004 0.20933,-0.005 v 0 0 c 2.02541,-0.11587 3.51794,-1.78387 3.50261,-3.759469 v 0 0 c 0,-0.008 0,-0.0152 0,-0.0208 v 0 -0.0244 0 -0.0235 0 0 c -0.003,-0.66794 -0.17513,-1.3066 -0.48307,-1.86327 v 0 0 c -0.5944,-1.09047 -1.763,-1.89161 -3.17221,-1.88768 z m -23.48447,-17.1684 c 0.0729,-0.23861 0.1084,-0.48147 0.1084,-0.72654 v 0 0 c 10e-4,-0.61787 -0.23759,-1.24907 -0.72099,-1.72074 v 0 0 c -0.47268,-0.46094 -1.09115,-0.69073 -1.70022,-0.6898 v 0 0 c -0.6312,-6.7e-4 -1.27087,0.24513 -1.74674,0.73834 v 0 0 c -0.28352,0.29293 -0.4678,0.639 -0.57133,0.9814 v 0 0 c -0.07,0.22987 -0.10667,0.47173 -0.10667,0.71587 v 0 0 c -10e-4,0.62073 0.24154,1.25647 0.72654,1.7314 v 0 0 c 0.46713,0.45833 1.08333,0.68527 1.68393,0.68361 v 0 0 c 0.001,0 0.004,0 0.005,0 v 0 0 c 0.62793,0 1.25554,-0.24608 1.72981,-0.71581 v 0 0 c 0.29721,-0.30079 0.48634,-0.65367 0.59181,-0.99773 z m -4.56349,43.519679 c -0.36167,0 -0.73534,0.0671 -1.09567,0.21615 v 0 0 c -1.14487,0.46613 -1.86688,1.57034 -1.86888,2.75847 v 0 0 c 0,0.3698 0.072,0.75394 0.22561,1.1198 v 0 0 c 0.19046,0.46422 0.4938,0.84055 0.83073,1.12501 v 0 0 c 0.53873,0.45247 1.2184,0.70447 1.92707,0.70447 v 0 0 c 0.004,0 0.008,0 0.012,0 v 0 0 c 0.36233,0 0.72921,-0.0704 1.08107,-0.20773 v 0 0 c 1.15854,-0.45701 1.85874,-1.56708 1.85614,-2.73635 v 0 0 c 0,-0.36587 -0.0675,-0.73759 -0.20672,-1.095 v 0 0 c -0.18127,-0.46814 -0.47882,-0.85161 -0.81381,-1.14453 v 0 l 10e-4,-6.7e-4 v 0 0 c -0.5332,-0.46613 -1.22134,-0.73827 -1.94794,-0.73961 z m -7.959633,9.01959 c -0.546267,-0.001 -1.107468,0.1184 -1.635735,0.37826 v 0 0 c -1.357807,0.66341 -2.141014,2.02667 -2.141014,3.43101 v 0 0 c 0,0.56247 0.125603,1.13933 0.39681,1.67707 v 0 0 c 0.277994,0.556 0.685258,0.99741 1.133469,1.32814 v 0 0 c 0.662137,0.48893 1.464197,0.7526 2.287471,0.7526 v 0 0 c 0.004,0 0.0067,0 0.0093,0 v 0 0 c 0.553402,0 1.116872,-0.12427 1.644272,-0.37892 v 0 0 c 1.33361,-0.66341 2.10708,-1.99935 2.10575,-3.38996 v 0 0 c 0,-0.5508 -0.12014,-1.11067 -0.36915,-1.6374 v 0 0 c -0.27079,-0.56767 -0.66792,-1.01953 -1.11,-1.36261 v 0 l -0.5244,0.67574 v 0 l 0.5228,-0.67574 v 0 0 c -0.6602,-0.51106 -1.47299,-0.79819 -2.319673,-0.79819 z M 76.83147,83.816521 c 0.11747,-0.29459 0.17606,-0.60353 0.17606,-0.91406 v 0 0 c 0,-0.53287 -0.17866,-1.08233 -0.5524,-1.52868 v 0 0 c -0.48145,-0.5768 -1.18194,-0.88019 -1.88053,-0.87853 v 0 0 c -0.54101,-10e-4 -1.09734,0.17868 -1.54882,0.55954 v 0 h -3.2e-4 v 0 0 c -0.33853,0.28093 -0.56514,0.63513 -0.69987,0.99153 v 0 0 c -0.11041,0.28094 -0.16607,0.58107 -0.16607,0.88381 v 0 0 c -6.7e-4,0.53773 0.17873,1.09313 0.55506,1.5456 v 0 0 c 0.47168,0.57547 1.16929,0.87401 1.85741,0.87301 v 0 0 c 0.54327,0 1.09373,-0.18487 1.5446,-0.54947 v 0 0 c 0.34147,-0.27667 0.57295,-0.62827 0.71488,-0.98275 z M 41.003537,141.41015 C 40.46347,141.03774 39.8222,140.83468 39.15973,140.83468 v 0 0 c -0.539067,0 -1.094068,0.13732 -1.596001,0.43487 v 0 0 c -1.035479,0.60153 -1.624014,1.69853 -1.624014,2.82353 v 0 0 c 0,0.54755 0.14027,1.11009 0.440411,1.61788 v 0 0 c 0.25946,0.44534 0.618456,0.79427 1.001932,1.0482 v 0 0 c 0.540734,0.35673 1.171603,0.54687 1.81614,0.54687 v 0 0 c 0.5462,0 1.101201,-0.13933 1.6048,-0.42446 v 0 0 c 1.041333,-0.5964 1.615548,-1.6856 1.612281,-2.79302 v 0 0 c 0,-0.5482 -0.137337,-1.10287 -0.42021,-1.60807 v 0 0 c -0.254594,-0.45441 -0.607469,-0.8086 -0.991532,-1.07033 z m 4.389618,-69.281799 c -0.329075,0.37141 -0.536734,0.80307 -0.64907,1.2272 v 0 0 c -0.0704,0.25948 -0.105203,0.52608 -0.105203,0.79654 v 0 0 c -0.0027,0.82881 0.337876,1.66861 1.013,2.26761 v 0 0 c 0.583001,0.51108 1.307938,0.76434 2.025408,0.76434 v 0 0 c 0.003,0 0.004,0 0.005,0 v 0 0 c 0.82127,0 1.6478,-0.33953 2.24413,-0.99614 v 0 0 c 0.34281,-0.37627 0.55762,-0.81447 0.67354,-1.2464 v 0 0 c 0.0735,-0.26954 0.10707,-0.54067 0.10707,-0.80987 v 0 0 c 0.003,-0.82001 -0.33233,-1.65007 -0.99447,-2.24908 v 0 0 c -0.57386,-0.52733 -1.30927,-0.7868 -2.02801,-0.78513 v 0 0 c -0.84506,0 -1.691733,0.3496 -2.292002,1.03093 z M 63.09015,110.85403 c -0.36067,0 -0.7324,0.0515 -1.10153,0.16607 v 0 0 c -1.63448,0.50386 -2.70509,2.00194 -2.70767,3.63734 v 0 0 c 0,0.37961 0.0583,0.76761 0.18292,1.14974 v 0 0 c 0.20054,0.62373 0.56247,1.1452 0.98533,1.54954 v 0 0 c 0.70768,0.67967 1.65527,1.07094 2.64943,1.07094 v 0 0 c 0.36912,0 0.74093,-0.0547 1.10579,-0.16407 v 0 0 c 1.62441,-0.50127 2.65821,-1.9896 2.65527,-3.60155 v 0 0 c 0,-0.35746 -0.0511,-0.7194 -0.15233,-1.0736 v 0 0 c -0.1816,-0.6224 -0.50846,-1.16533 -0.93259,-1.60093 v 0 0 c -0.69761,-0.71154 -1.65955,-1.13348 -2.68462,-1.13348 z M 68.5879,80.662261 c 0.11401,-0.32948 0.17128,-0.67254 0.17128,-1.01668 v 0 0 c 0.001,-0.72361 -0.26048,-1.46026 -0.79368,-2.04033 v 0 0 c -0.59307,-0.65461 -1.42187,-0.98535 -2.23635,-0.98375 v 0 0 c -0.74706,0 -1.5026,0.27248 -2.0872,0.82134 v 0 0 c -0.38639,0.36193 -0.64127,0.80273 -0.7904,1.24474 v 0 0 c -0.10707,0.31806 -0.16273,0.65207 -0.16273,0.9886 v 0 0 c -10e-4,0.73214 0.26333,1.48081 0.8086,2.06388 v 0 0 c 0.59993,0.63867 1.4144,0.96646 2.22561,0.9648 v 0 0 c 0.003,0 0.004,0 0.007,0 v 0 0 c 0.72595,0 1.46194,-0.26626 2.04141,-0.79233 v 0 0 c 0.39874,-0.36294 0.66207,-0.80367 0.81734,-1.25027 z m 40.20363,-31.71433 c -0.5488,-10e-4 -1.11261,0.16239 -1.59962,0.50975 v 0 0 c -0.76852,0.54065 -1.18167,1.40921 -1.18,2.28319 v 0 0 c -0.001,0.55668 0.167,1.12795 0.5172,1.61653 v 0 0 c 0.27481,0.38868 0.63547,0.66961 1.00588,0.86008 v 0 l 0.38999,-0.76139 v 0 l -0.38799,0.76139 v 0 0 c 0.39773,0.2034 0.83719,0.30889 1.2838,0.30889 v 0 0 c 0.5508,0 1.11461,-0.16569 1.599,-0.50715 v 0 0 c 0.76954,-0.54595 1.18161,-1.41114 1.18101,-2.28287 v 0 0 c 0,-0.55501 -0.16867,-1.12015 -0.5098,-1.60681 v 0 0 c -0.27408,-0.389 -0.6328,-0.67448 -1.00453,-0.86488 v 0 0 c -0.40041,-0.20834 -0.84508,-0.31673 -1.29494,-0.31673 z m -2.14128,79.238899 c 0.11453,0.0107 0.22133,0.0149 0.3268,0.0149 v 0 0 c 0.52867,0 1.02414,-0.11854 1.46613,-0.30533 v 0 0 c 1.21681,-0.51233 2.13809,-1.66148 2.26569,-3.08981 v 0 0 c 0.009,-0.11854 0.0133,-0.22401 0.0133,-0.32487 v 0 0 c 0,-1.92648 -1.47068,-3.57168 -3.43035,-3.73049 v 0 10e-4 0 0 c -0.0904,-0.008 -0.18554,-0.0133 -0.28193,-0.0133 v 0 0 c -0.54361,0 -1.05468,0.12627 -1.50714,0.32873 v 0 0 c -1.20507,0.52674 -2.10942,1.68235 -2.22787,3.09641 v 0 0 c -0.008,0.10161 -0.0147,0.21161 -0.0147,0.32555 v 0 0 c 0,1.91139 1.46326,3.51494 3.39034,3.69661 z m 7.55989,-90.290071 c -0.69267,-0.0013 -1.403,0.203472 -2.01694,0.637403 v 0 0 c -0.98693,0.689737 -1.5182,1.798139 -1.51693,2.918607 v 0 0 c 0,0.701471 0.20966,1.419276 0.64587,2.038745 v 0 0 c 0.33986,0.479799 0.77799,0.832661 1.23894,1.076214 v 0 0 c 0.52146,0.276647 1.10153,0.420184 1.68553,0.420184 v 0 0 c 0.003,0 0.005,0 0.007,0 v 0 0 c 0.69467,0 1.40234,-0.209272 2.01561,-0.634136 v 0 0 c 0.98566,-0.692324 1.51433,-1.795192 1.513,-2.908194 v 0 0 c 0,-0.702151 -0.20961,-1.411742 -0.63734,-2.028611 v 0 0 c -0.33333,-0.481466 -0.7702,-0.837928 -1.22854,-1.086615 v 0 0 c -0.52406,-0.28386 -1.11133,-0.433597 -1.7064,-0.433597 z M 96.29508,105.70495 c 0.0719,0.003 0.13933,0.007 0.2106,0.007 v 0 0 c 0.6032,0 1.16734,-0.15493 1.6566,-0.39521 v 0 0 c 1.15527,-0.56966 2.00028,-1.72653 2.07488,-3.12559 v 0 0 c 0.005,-0.0717 0.005,-0.14001 0.005,-0.20314 v 0 0 c -0.001,-1.98048 -1.55048,-3.639019 -3.54949,-3.738949 v 0 0 c -0.0485,-0.003 -0.10414,-0.004 -0.16733,-0.004 v 0 0 c -0.6266,-0.001 -1.21127,0.1654 -1.71355,0.42873 v 0 0 c -1.13773,0.59047 -1.95213,1.753269 -2.02673,3.125009 v 0 0 c -0.003,0.056 -0.007,0.12241 -0.007,0.19661 v 0 0 c -10e-4,1.95967 1.53027,3.59248 3.51661,3.71094 z m 11.33371,-19.562869 c -0.59313,-0.28254 -1.22627,-0.41701 -1.84507,-0.41601 v 0 0 c -1.62728,-0.001 -3.19568,0.91861 -3.92389,2.49734 v 0 0 c -0.26661,0.57687 -0.3896,1.183 -0.3896,1.77774 v 0 0 c 0,0.13014 0.005,0.26921 0.0204,0.41568 v 0 0 c 0.13933,1.47359 1.0446,2.83853 2.46975,3.51494 v 0 0 c 0.5866,0.27573 1.208,0.40693 1.81867,0.40693 v 0 0 c 6.7e-4,0 0.003,0 0.004,0 v 0 0 c 1.60027,0 3.13348,-0.90886 3.87501,-2.45121 v 0 0 c 0.28907,-0.6022 0.42381,-1.24087 0.42254,-1.86127 v 0 0 c 0,-0.10974 -0.005,-0.20833 -0.009,-0.28846 v 0 0 c -0.10361,-1.50715 -0.98695,-2.90721 -2.44268,-3.59568 z m -5.92976,29.924239 c 0.0775,0.005 0.14487,0.007 0.2048,0.007 v 0 0 c 0.44987,0 0.86588,-0.10933 1.22587,-0.27347 v 0 0 c 0.92973,-0.4258 1.62274,-1.33399 1.69927,-2.44014 v 0 0 c 0.004,-0.0775 0.005,-0.14319 0.005,-0.20306 v 0 0 c 0,-1.52541 -1.17321,-2.81322 -2.71847,-2.92129 v 0 l 6.6e-4,-6.6e-4 v 0 0 c -0.0593,-0.004 -0.12213,-0.008 -0.19367,-0.008 v 0 0 c -0.45673,0 -0.88314,0.1132 -1.25394,0.2904 v 0 0 c -0.91634,0.431 -1.59766,1.33854 -1.6722,2.43815 v 0 0 c -0.005,0.0527 -0.009,0.12493 -0.009,0.2064 v 0 0 c 0,1.52213 1.181,2.78841 2.71127,2.90427 z M 93.6736,79.648511 c -0.72101,-0.001 -1.4586,0.22107 -2.0872,0.69147 v 0 0 c -0.94141,0.69527 -1.44401,1.77928 -1.44401,2.86881 v 0 0 c 0,0.73794 0.23174,1.49054 0.71187,2.12828 v 0 0 c 0.39359,0.52373 0.90919,0.88833 1.44534,1.1142 v 0 0 c 0.44827,0.18881 0.92706,0.28588 1.4108,0.28588 v 0 0 c 10e-4,0 0.004,0 0.007,0 v 0 0 c 0.73148,0 1.47428,-0.22888 2.10482,-0.69308 v 0 l -0.50654,-0.68813 v 0 l 0.50947,0.6852 v 0 0 c 0.93133,-0.6914 1.42646,-1.76207 1.42513,-2.83822 v 0 0 c 10e-4,-0.73239 -0.22526,-1.47459 -0.69139,-2.1074 v 0 0 c -0.38348,-0.52446 -0.89034,-0.89747 -1.42354,-1.13547 v 0 0 c -0.458,-0.20313 -0.95735,-0.31154 -1.46128,-0.31154 z m 41.83349,4.57656 c -1.58334,-0.001 -3.11068,0.87399 -3.86068,2.39001 v 0 0 c -0.30274,0.60966 -0.44787,1.26267 -0.44787,1.90234 v 0 0 c 0,0.0472 0,0.10293 0.005,0.16599 v 0 0 c 0.0501,1.51234 0.91928,2.96649 2.38154,3.69921 v 0 0 c 0.6152,0.30734 1.27274,0.45381 1.91794,0.45381 v 0 0 c 0.001,0 0.003,0 0.004,0 v 0 0 c 1.57028,0 3.07941,-0.8708 3.83922,-2.36654 v 0 0 c 0.31439,-0.62433 0.46286,-1.29167 0.46286,-1.94467 v 0 0 c 0,-0.0501 -0.003,-0.0664 -0.003,-0.0664 v 0 0 c -0.0357,-1.56935 -0.89653,-3.03521 -2.36788,-3.77315 v 0 -6.7e-4 0 0 c -0.61913,-0.31054 -1.28127,-0.45993 -1.93167,-0.45993 z m -20.19081,67.082249 c 0.19467,0.032 0.3848,0.0449 0.569,0.0449 v 0 0 c 0.40628,0 0.79234,-0.0703 1.14914,-0.17968 v 0 0 c 1.29427,-0.40754 2.33854,-1.51501 2.55921,-2.97594 v 0 l -0.8444,-0.12894 v 0 l 0.8464,0.12107 v 0 0 c 0.026,-0.18293 0.0397,-0.36587 0.0397,-0.5456 v 0 0 c 0,-1.83982 -1.33921,-3.46222 -3.22068,-3.71741 v 0 0 c -0.15559,-0.0215 -0.31639,-0.0332 -0.47593,-0.0332 v 0 0 c -0.43813,0 -0.85221,0.0801 -1.23634,0.21352 v 0 0 c -1.27667,0.44008 -2.2832,1.56248 -2.48961,2.99609 v 0 0 c -0.028,0.17706 -0.0423,0.36653 -0.0423,0.5534 v 0 0 c 0,1.80794 1.32808,3.35414 3.14582,3.65168 z m 4.53389,-117.01604 c 0.59307,0 1.19793,-0.175804 1.722,-0.537747 v 0 0 c 0.85414,-0.588601 1.31381,-1.540385 1.31247,-2.499743 v 0 0 c 0,-0.598922 -0.17707,-1.206657 -0.541,-1.732391 v 0 0 c -0.27667,-0.40301 -0.63347,-0.704739 -1.01107,-0.918607 v 0 0 c -0.4616,-0.2588 -0.98174,-0.396801 -1.50907,-0.396801 v 0 0 c -0.58987,-6.67e-4 -1.196,0.174134 -1.72207,0.542269 v 0 0 c -0.84961,0.588601 -1.31314,1.542012 -1.31314,2.508477 v 0 0 c 0,0.597335 0.17772,1.21127 0.55013,1.738684 v 0 0 c 0.27866,0.399717 0.63867,0.698178 1.0176,0.907863 v 0 l 0.416,-0.746472 v 0 l -0.41406,0.747725 v 0 0 c 0.45639,0.253273 0.97074,0.386743 1.49221,0.386743 z M 103.5441,58.579761 c -0.70147,-6.6e-4 -1.42026,0.21001 -2.04007,0.65495 v 0 0 c -0.96967,0.69306 -1.49247,1.78974 -1.49054,2.89814 v 0 0 c -0.001,0.71321 0.21647,1.44307 0.66734,2.06807 v 0 0 c 0.36199,0.50228 0.83494,0.86394 1.33007,1.10415 v 0 l 0.37466,-0.76788 v 0 l -0.37306,0.76788 v 0 0 c 0.4922,0.24026 1.02933,0.36326 1.57427,0.36326 v 0 0 c 0.707,0 1.42807,-0.21354 2.04721,-0.6562 v 0 0 c 0.96806,-0.68981 1.485,-1.78194 1.48373,-2.88381 v 0 0 c 0,-0.71127 -0.21486,-1.43526 -0.65594,-2.05767 v 0 0 c -0.35906,-0.50489 -0.82912,-0.87108 -1.32292,-1.11554 v 0 0 c -0.49642,-0.24608 -1.04268,-0.37535 -1.59475,-0.37535 z m 7.81777,80.277039 c 0.11387,0.0136 0.21999,0.0183 0.319,0.0183 v 0 0 c 0.004,0 0.007,0 0.0107,0 v 0 0 c 0.37693,0 0.72661,-0.0788 1.0404,-0.19534 v 0 0 c 0.98242,-0.37299 1.74414,-1.26694 1.86781,-2.39714 v 0 0 c 0.0137,-0.11453 0.0183,-0.22586 0.0183,-0.33266 v 0 0 c -0.001,-1.48501 -1.12114,-2.74415 -2.61722,-2.90235 v 0 0 c -0.0911,-0.0107 -0.18879,-0.0156 -0.28712,-0.0156 v 0 0 c -0.38933,0 -0.75848,0.0801 -1.08787,0.21352 v 0 0 c -0.96814,0.38088 -1.71354,1.27802 -1.83661,2.39976 v 0 0 c -0.0107,0.0944 -0.0181,0.19787 -0.0181,0.30919 v 0 0 c -6.7e-4,1.46296 1.09113,2.72988 2.59115,2.90242 z M 98.50375,69.818741 c -0.55861,-0.001 -1.13347,0.16861 -1.62307,0.529 v 0 0 c -0.75134,0.53967 -1.15694,1.40101 -1.15561,2.26495 v 0 0 c 0,0.5658 0.17414,1.14681 0.5348,1.64067 v 0 0 c 0.29401,0.40687 0.68201,0.69527 1.08241,0.88021 v 0 0 c 0.37627,0.17413 0.78154,0.26233 1.19007,0.26333 v 0 0 c 0.56253,0 1.13548,-0.17254 1.62468,-0.5228 v 0 0 c 0.75554,-0.5488 1.15853,-1.40461 1.15693,-2.26401 v 0 0 c 0,-0.56506 -0.17447,-1.14061 -0.52733,-1.63121 v 0 l -0.69434,0.49773 v 0 l 0.69434,-0.49933 v 0 0 c -0.29301,-0.40853 -0.67974,-0.69887 -1.07781,-0.88733 v 0 0 c -0.37633,-0.17774 -0.7884,-0.27121 -1.20507,-0.27121 z m -80.708365,17.24293 c 1.023467,0.77281 2.063872,1.51435 3.115613,2.22462 v 0 0 c 6.454752,4.35907 14.176455,8.15235 22.084416,8.59083 v 0 0 c 3.716146,0.20673 10.079096,-0.63993 9.073896,-5.79949 v 0 0 c -1.0768,-5.52702 -8.191434,-9.8275 -12.433648,-12.66571 v 0 0 C 33.091709,75.034571 26.16948,71.221751 19.359255,67.281661 v 0 0 c -1.586606,-0.91733 -3.171944,-1.836 -4.757549,-2.7546 v 0 0 c 11.68691,0.916 23.373487,2.0928 35.103334,2.22427 v 0 0 c 6.00395,0.0675 12.03425,0.004 18.05052,-0.39546 v 0 0 c 4.56157,-0.30601 9.29297,-0.70967 13.26406,-2.96034 v 0 0 c 6.33596,-3.57028 11.10911,-11.38479 15.74259,-16.867206 v 0 0 c 3.40202,-4.025076 6.86036,-7.98603 10.42577,-11.867249 v 0 0 c 4.05996,-4.418605 8.60163,-9.159562 13.64785,-13.827512 v 0 0 c 2.32621,-2.135408 4.77475,-4.245483 7.3197,-6.163757 v 0 0 c 0.2578,4.769885 0.21353,10.244838 0.16213,15.395526 v 0 0 c -0.13673,8.688488 -0.5098,17.751728 -0.86654,27.171368 v 0 l 0.11974,6.7e-4 v 0 0 c -0.0944,0.42806 -0.15687,0.86686 -0.17247,1.31934 v 0 0 c -0.16019,3.93167 3.28908,8.19602 7.6875,7.69602 v 0 0 c 3.98374,-0.4938 7.37829,-2.67221 7.75849,-6.73277 v 0 l 0.0189,0.005 v 0 l 0.0107,-0.34604 v 0 l 0.009,-0.11041 v 0 l -0.001,-0.12133 v 0 0 c 0.30601,-9.44176 0.57027,-18.790455 0.48633,-27.859152 v 0 0 c -0.23766,-9.250378 -0.0879,-17.510809 -2.3646,-27.3705799 v 0 0 c -0.18166,-0.784469 -0.97074,-3.26887704 -7.19989,-5.51302 v 0 0 c -0.87375,-0.314468 -4.86655,-1.19367 -7.2455,1.02766996 v 0 0 C 96.04907,27.717603 77.59787,59.824451 76.54807,59.677981 v 0 0 C 52.47611,56.319711 4.269867,49.111001 0.71905396,57.739321 v 0 0 C -1.270554,62.574271 1.235322,68.104291 3.791666,72.200961 v 0 0 c 3.59508,5.76203 8.55763,10.74905 14.004253,14.86139 z m 194.258255,-4.08627 c -0.20707,-0.48927 -0.45707,-0.85581 -0.696,-1.28061 v 0 0 c -0.0755,-0.12494 -0.34828,-0.58727 -0.26694,-0.43 v 0 l -0.64454,-0.88254 v 0 0 c -0.98239,-1.29781 -1.73173,-1.7464 -2.61453,-2.45894 v 0 0 c -1.52541,-0.99093 -2.91475,-1.6312 -4.16929,-2.10548 v 0 0 c -9.7455,-3.2468 -17.48839,-3.50494 -24.95716,-4.22822 v 0 0 c -29.3933,-1.64326 -46.93118,-0.7048 -47.2443,0.95082 v 0 0 c -0.39195,2.45187 17.50005,5.37828 45.5067,9.65176 v 0 0 c 6.80143,1.2246 14.90499,2.52341 21.39328,5.10642 v 0 0 c 1.60613,0.63867 2.46227,1.5072 1.75847,0.9476 v 0 0 c 0.0365,0.16834 0.0553,0.24061 0.0612,0.26047 v 0 0 c -0.012,-0.0411 -0.0996,-0.29434 -0.18294,0.0107 v 0 0 c -0.56253,1.1406 -4.05601,3.84182 -7.75069,5.59082 v 0 0 c -15.6706,7.418969 -32.91218,11.312839 -49.83479,14.676189 v 0 0 c -7.21355,1.43353 -18.41413,2.19074 -20.68433,10.6797 v 0 0 c -1.64975,6.16475 0.13605,13.26766 1.16927,19.38808 v 0 0 c 1.24673,7.39129 2.43687,14.78785 2.6276,22.29568 v 0 0 c 0.1712,6.77282 0.2246,14.52605 -1.24673,21.17194 v 0 0 c -0.35421,1.50068 -0.79301,2.94334 -1.23634,4.04621 v 0 0 c -1.18035,-1.18812 -1.98441,-2.1862 -3.03776,-3.8698 v 0 0 c -4.24094,-6.81383 -7.40174,-14.41473 -10.94537,-21.59835 v 0 0 c -4.25034,-8.6153 -8.25622,-17.34447 -12.35684,-26.0307 v 0 0 c -2.85381,-6.04496 -5.53062,-16.08013 -13.83045,-15.9786 v 0 0 c -4.57389,0.056 -8.02444,3.45508 -11.12564,6.40497 v 0 0 c -3.69502,3.51434 -7.52577,6.88936 -11.33312,10.2813 v 0 0 c -7.33269,6.53196 -14.745451,12.97338 -22.236402,19.32301 v 0 0 c -3.873018,3.2832 -7.746437,6.57229 -11.68685,9.7741 v 0 0 c -1.270868,1.03253 -2.554742,2.0684 -3.826877,3.07621 v 0 0 c 1.916672,-6.48443 3.980478,-12.65565 6.249092,-18.19087 v 0 0 C 40.105074,122.03377 50.53443,106.12678 48.36323,104.72443 v 0 0 c -1.40234,-1.01106 -14.958726,12.29433 -29.447043,39.77229 v 0 0 c -3.586947,6.87502 -6.931025,14.75399 -10.006237,23.46101 v 0 0 c -0.7542,2.34509 -1.726205,5.3809 -1.40527,9.33597 v 0 0 c 0.244134,1.98568 0.787801,4.20056 2.019205,6.11269 v 0 l 0.446604,0.72134 v 0 l 0.231133,0.35548 v 0 l 0.05827,0.0885 v 0 0 c 1.700207,1.86982 0.775072,0.76694 1.312205,1.29301 v 0 0 c 0.390937,0.28187 0.837204,0.54948 1.325538,0.77474 v 0 0 c 1.82781,1.04493 5.000355,0.66147 4.687488,0.59767 v 0 0 c 0.451535,-0.0971 0.903999,-0.21621 1.348337,-0.35613 v 0 0 c 1.580405,-0.55467 2.019874,-0.86068 2.838543,-1.26827 v 0 0 c 5.034482,-2.85549 8.753296,-5.69336 12.977577,-8.76237 v 0 0 c 16.308,-12.28198 52.28406,-43.65055 52.42173,-43.79182 v 0 0 c 1.99808,7.80536 5.78975,19.38093 11.41084,33.64071 v 0 0 c 2.70835,6.71037 5.59249,13.90372 9.71651,21.84908 v 0 0 c 0.54693,1.013 1.0944,2.02082 1.81254,3.14975 v 0 0 c 0.31899,0.52993 0.78579,1.1842 1.25394,1.81707 v 0 0 c 0.26946,0.34893 0.75519,0.9876 1.1588,1.47261 v 0 0 c 1.87308,2 3.61461,4.49681 8.55603,6.15241 v 0 0 c 2.45508,0.83595 6.24809,0.42901 8.65564,-1.09833 v 0 0 c 2.43294,-1.45766 3.72788,-3.16668 4.75394,-4.65108 v 0 0 c 1.95375,-3.01234 2.85808,-5.67056 3.70315,-8.30597 v 0 0 c 5.62042,-20.67394 1.36521,-41.12387 -0.57227,-61.64475 v 0 0 c 21.88096,-4.20255 42.12969,-9.16284 60.3993,-18.45194 v 0 0 c 4.60548,-2.72135 9.39262,-5.14389 13.42258,-11.460649 v 0 0 c 2.09827,-3.08921 2.65947,-8.95703 0.61133,-12.55211 z"
       stroke="none"
       fill="#ff8c00"
       fill-rule="nonzero"
       style="stroke-width:0.666669" />
  </g>
</svg>
